<svg width="50" height="50" viewBox="0 0 50 50" fill="none" xmlns="http://www.w3.org/2000/svg">
<rect width="50" height="50" fill="#336791" fill-opacity="0.2"/>
<g clip-path="url(#clip0_451_79)">
<path opacity="0.2" d="M45.8376 29.1521C45.5858 28.4125 44.9261 27.8974 44.073 27.7738C43.6708 27.7155 43.2101 27.7404 42.6649 27.8493C41.7147 28.0394 41.0098 28.1118 40.4953 28.1258C42.4372 24.9464 44.0163 21.3207 44.9253 17.9077C46.3952 12.389 45.6097 9.87492 44.6918 8.73773C42.2627 5.72773 38.7186 4.11073 34.4431 4.06126C32.1622 4.03421 30.16 4.47092 29.1154 4.78496C28.1429 4.61855 27.0973 4.52564 26.0001 4.50846C23.9433 4.47664 22.1261 4.91144 20.5733 5.80505C19.7137 5.52314 18.334 5.12573 16.7407 4.87214C12.9934 4.27555 9.97319 4.74042 7.76404 6.25385C5.08899 8.08626 3.84891 11.27 4.07826 15.7166C4.15109 17.1283 4.96546 21.4238 6.2477 25.4975C6.98463 27.839 7.77044 29.7834 8.58333 31.2773C9.73613 33.3956 10.9696 34.643 12.3544 35.091C13.1306 35.3417 14.5408 35.5174 16.024 34.3194C16.212 34.5402 16.4628 34.7596 16.7957 34.9634C17.2184 35.2219 17.7354 35.4332 18.2517 35.5584C20.1122 36.0094 21.8549 35.8966 23.3417 35.2644C23.3509 35.5209 23.358 35.7659 23.3639 35.9774C23.3737 36.3206 23.3836 36.6571 23.3965 36.9718C23.4846 39.0994 23.6339 40.7538 24.0762 41.9114C24.1005 41.975 24.1331 42.0721 24.1676 42.175C24.3882 42.8301 24.7572 43.9269 25.6959 44.7858C26.6679 45.6756 27.8437 45.9485 28.9205 45.9485C29.4606 45.9485 29.9759 45.8797 30.4279 45.7859C32.0389 45.451 33.8686 44.9409 35.1921 43.1133C36.4435 41.3856 37.0519 38.7833 37.1619 34.6831C37.1762 34.5671 37.1893 34.4564 37.202 34.3509L37.2282 34.1342L37.523 34.1594L37.599 34.1643C39.2398 34.2368 41.2462 33.8994 42.4784 33.3443C43.4521 32.9062 46.5722 31.3088 45.8376 29.1521" fill="black"/>
<path d="M43.4971 29.5696C38.6181 30.5456 38.2827 28.9437 38.2827 28.9437C43.4339 21.5312 45.5875 12.1221 43.7292 9.81924C38.6593 3.53754 29.8833 6.5084 29.7368 6.5854L29.6897 6.59367C28.7257 6.39958 27.6471 6.28408 26.4345 6.26483C24.227 6.22983 22.5524 6.8261 21.2816 7.7606C21.2816 7.7606 5.626 1.5061 6.35423 15.6267C6.5091 18.6307 10.7942 38.3565 15.9051 32.3984C17.7732 30.2196 19.5783 28.3775 19.5783 28.3775C20.4746 28.955 21.5479 29.2497 22.673 29.1439L22.7604 29.0719C22.7332 29.3424 22.7456 29.607 22.7953 29.9202C21.4787 31.3468 21.8657 31.5972 19.2336 32.1227C16.5702 32.655 18.1348 33.6025 19.1563 33.8504C20.3948 34.1506 23.2598 34.576 25.1956 31.948L25.1185 32.2479C25.6343 32.6486 25.9965 34.8543 25.9358 36.8539C25.8751 38.8533 25.8346 40.2261 26.241 41.2984C26.6477 42.3707 27.0527 44.7833 30.5129 44.0644C33.404 43.4635 34.9023 41.9064 35.1108 39.3091C35.2587 37.4627 35.5935 37.7357 35.6145 36.0848L35.883 35.3034C36.1926 32.8004 35.9323 31.9929 37.7134 32.3685L38.1465 32.4054C39.4573 32.4631 41.1733 32.2008 42.1804 31.7469C44.3489 30.771 45.635 29.1415 43.4968 29.5696H43.4971" fill="#336791"/>
<path d="M21.7314 16.9702C21.2917 16.9108 20.8936 16.9657 20.6921 17.1137C20.5789 17.1969 20.5438 17.2933 20.5343 17.3596C20.509 17.5354 20.636 17.7298 20.7141 17.8301C20.9349 18.1139 21.2574 18.3089 21.5767 18.3519C21.6229 18.3582 21.669 18.3611 21.7148 18.3611C22.2472 18.3611 22.7313 17.9591 22.7739 17.6624C22.8273 17.2907 22.2709 17.043 21.7314 16.9703" fill="white"/>
<path d="M36.2967 16.9818C36.2547 16.6905 35.7202 16.6075 35.2129 16.6759C34.7063 16.7443 34.2152 16.9661 34.2562 17.258C34.289 17.485 34.7118 17.8726 35.2121 17.8726C35.2544 17.8726 35.2971 17.8699 35.3401 17.864C35.6741 17.8191 35.9192 17.6134 36.0357 17.4949C36.2129 17.3141 36.3155 17.1127 36.2967 16.9818" fill="white"/>
<path d="M44.6538 29.4591C44.4678 28.9136 43.869 28.7381 42.8742 28.9373C39.9204 29.5285 38.8626 29.119 38.5153 28.8709C40.8112 25.4791 42.6999 21.379 43.7189 17.5537C44.2015 15.7416 44.4681 14.0588 44.4899 12.6871C44.5141 11.1816 44.2496 10.0753 43.7043 9.39948C41.5056 6.67504 38.2787 5.21363 34.3726 5.17354C31.6872 5.14427 29.4183 5.8107 28.9785 5.99811C28.0523 5.77475 27.0425 5.63761 25.9432 5.62011C23.9273 5.58845 22.1847 6.0565 20.742 7.01057C20.1154 6.78434 18.4958 6.24518 16.5152 5.93575C13.0911 5.4012 10.3701 5.80625 8.42835 7.14023C6.11142 8.73209 5.04179 11.5776 5.24899 15.5975C5.31871 16.9499 6.11339 21.1105 7.36741 25.0949C9.01812 30.3392 10.8125 33.308 12.7005 33.9187C12.9214 33.9902 13.1762 34.0401 13.4572 34.0401C14.1459 34.0401 14.9903 33.7391 15.8688 32.7149C16.9404 31.4683 18.0488 30.2521 19.1927 29.0676C19.9349 29.4538 20.7502 29.6696 21.5841 29.6912C21.5858 29.7124 21.5879 29.7335 21.5899 29.7545C21.4463 29.9205 21.3058 30.0889 21.1683 30.2596C20.5905 30.9709 20.4702 31.1191 18.6103 31.4904C18.0813 31.5963 16.6761 31.8771 16.6555 32.8323C16.6332 33.8759 18.3165 34.3142 18.5083 34.3607C19.1766 34.523 19.8206 34.603 20.4346 34.603C21.928 34.603 23.2422 34.127 24.2925 33.206C24.2602 36.9265 24.4201 40.5926 24.8808 41.7096C25.2581 42.624 26.1798 44.8588 29.0911 44.8586C29.5182 44.8586 29.9884 44.8104 30.5057 44.7029C33.5441 44.0713 34.8636 42.769 35.374 39.8978C35.6471 38.3634 36.1158 34.6994 36.3363 32.734C36.8016 32.8748 37.4005 32.9392 38.048 32.9391C39.3985 32.9391 40.9569 32.6608 41.9341 32.2209C43.032 31.7265 45.0131 30.5132 44.6538 29.4591V29.4591ZM37.4181 16.1782C37.4081 16.7584 37.3257 17.2851 37.2384 17.835C37.1444 18.4263 37.0473 19.0377 37.0229 19.7798C36.9988 20.5021 37.0918 21.253 37.1817 21.9793C37.3635 23.4461 37.55 24.9562 36.828 26.4462C36.708 26.2402 36.6012 26.0272 36.5081 25.8084C36.4183 25.5975 36.2234 25.2586 35.9536 24.7896C34.9038 22.9639 32.4455 18.6885 33.7039 16.9439C34.0788 16.4246 35.0301 15.8907 37.4181 16.1782V16.1782ZM34.5235 6.34843C38.0234 6.42336 40.792 7.69307 42.7521 10.1221C44.2555 11.9852 42.6 20.4627 37.8075 27.7762C37.7593 27.7168 37.7109 27.6576 37.6622 27.5985L37.6015 27.525C38.8399 25.5416 38.5978 23.5793 38.3822 21.8394C38.2936 21.1254 38.21 20.451 38.2313 19.8175C38.2533 19.1462 38.3448 18.5703 38.4334 18.0135C38.5422 17.3273 38.6529 16.6173 38.6224 15.7803C38.6452 15.6925 38.6544 15.5888 38.6424 15.4656C38.5645 14.663 37.6195 12.2609 35.6936 10.0867C34.64 8.89754 33.1036 7.56675 31.0059 6.66916C31.9082 6.48779 33.142 6.31868 34.5235 6.34843V6.34843ZM14.9391 31.9653C13.9712 33.0938 13.3029 32.8775 13.083 32.8065C11.6508 32.3433 9.98899 29.4077 8.52383 24.7527C7.25602 20.7248 6.51515 16.6745 6.45642 15.5388C6.27137 11.9468 7.16924 9.44354 9.12525 8.09827C12.3085 5.90918 17.5422 7.21945 19.6452 7.88398C19.615 7.91293 19.5835 7.93998 19.5536 7.96941C16.1026 11.3491 16.1845 17.1235 16.193 17.4765C16.1927 17.6127 16.2045 17.8055 16.2206 18.0707C16.2799 19.042 16.3905 20.8496 16.0952 22.8966C15.8209 24.7988 16.4256 26.6607 17.754 28.0048C17.8903 28.1425 18.0336 28.2736 18.1833 28.3975C17.592 29.0116 16.307 30.3696 14.9391 31.9653V31.9653ZM18.6269 27.1936C17.5563 26.1102 17.07 24.6033 17.2926 23.0589C17.6044 20.8965 17.4894 19.0132 17.4275 18.0014C17.4188 17.8598 17.4111 17.7357 17.4067 17.6378C17.9108 17.2043 20.2471 15.9905 21.9132 16.3607C22.6734 16.5295 23.1367 17.0315 23.3293 17.8951C24.3261 22.366 23.4612 24.2295 22.7663 25.727C22.6231 26.0355 22.4877 26.3271 22.3722 26.6287L22.2827 26.8619C22.0559 27.4515 21.845 27.9998 21.7142 28.5203C20.576 28.5171 19.4688 28.0456 18.6269 27.1935V27.1936ZM18.8016 33.2232C18.4692 33.1427 18.1703 33.0028 17.995 32.8869C18.1415 32.8201 18.4021 32.7291 18.8543 32.6387C21.0423 32.202 21.3802 31.8937 22.1181 30.9851C22.2873 30.7767 22.479 30.5406 22.7446 30.253L22.745 30.2526C23.1405 29.8231 23.3215 29.896 23.6496 30.028C23.9155 30.1346 24.1745 30.4579 24.2795 30.8136C24.3292 30.9816 24.385 31.3004 24.2024 31.5486C22.661 33.6416 20.4148 33.6147 18.8016 33.2232V33.2232ZM30.2524 43.5565C27.5757 44.1126 26.628 42.7882 26.0034 41.2741C25.6003 40.2967 25.4021 35.8889 25.5427 31.0212C25.5445 30.9565 25.535 30.8939 25.5167 30.8351C25.5002 30.7188 25.4752 30.6039 25.4418 30.4911C25.2328 29.7828 24.7235 29.1904 24.1124 28.9448C23.8696 28.8472 23.424 28.6683 22.8885 28.8011C23.0027 28.3448 23.2007 27.8295 23.4155 27.2716L23.5055 27.0369C23.6069 26.7724 23.7342 26.4983 23.8687 26.2081C24.596 24.6413 25.592 22.4954 24.511 17.6474C24.1061 15.8315 22.754 14.9448 20.7043 15.1508C19.4755 15.2741 18.3513 15.7548 17.7906 16.0305C17.67 16.0897 17.5597 16.147 17.4567 16.2027C17.6132 14.3731 18.2045 10.954 20.4162 8.79063C21.8089 7.42882 23.6635 6.75618 25.9232 6.79245C30.3756 6.86309 33.2308 9.07891 34.8421 10.9255C36.2307 12.5165 36.9825 14.1194 37.2826 14.9839C35.026 14.7613 33.4913 15.1933 32.7134 16.2719C31.0208 18.6182 33.6393 23.172 34.8977 25.3606C35.1285 25.7617 35.3277 26.1083 35.3904 26.2556C35.8002 27.2188 36.3307 27.8618 36.7181 28.3311C36.8368 28.475 36.952 28.6145 37.0396 28.7363C36.3562 28.9274 35.1285 29.3689 35.2404 31.5756C35.1502 32.6829 34.5086 37.8671 34.1826 39.6987C33.7523 42.1184 32.8341 43.0197 30.2524 43.5566V43.5565ZM41.4251 31.1576C40.7262 31.4721 39.5567 31.708 38.4457 31.7588C37.2186 31.8144 36.5939 31.6254 36.4469 31.5091C36.378 30.134 36.9057 29.9903 37.4643 29.8382C37.5521 29.8143 37.6377 29.791 37.7204 29.763C37.7718 29.8035 37.8281 29.8438 37.8897 29.8832C38.876 30.5145 40.6352 30.5826 43.1188 30.0854L43.146 30.0802C42.811 30.3839 42.2378 30.7915 41.4251 31.1576Z" fill="white"/>
</g>
<defs>
<clipPath id="clip0_451_79">
<rect width="42" height="42" fill="white" transform="translate(4 4)"/>
</clipPath>
</defs>
</svg>
